<svg xmlns="http://www.w3.org/2000/svg" width="900" height="350" style="width:100%;height:100%;content-visibility:visible" viewBox="0 0 900 350"><defs><clipPath id="a"><path d="M0 0h900v350H0z"/></clipPath></defs><g clip-path="url(#a)"><g display="block"><path fill="#A1A1A1" d="m19.201 94.137 13.509-39.82 6.399 38.398-19.908 1.422zM213.325 79.205l12.799-35.554 2.134 34.843-14.933.711zM268.79 57.872l2.133-38.398 10.667 37.687-12.8.711zM366.208 37.962l8.532-31.288 4.978 30.577-13.51.711zM676.596 40.095l-13.512-29.866-2.134 36.978 15.646-7.112zM743.081 63.205l-9.244-29.865-4.977 32.71 14.221-2.845zM843.345 86.315l-7.111-41.242-7.111 41.242h14.222z"/><path fill="#C3C3C3" d="m297.909 104.919 122.186 4.638 155.679-12.611 151.309 10.773 94.929-2.8-8.095 99.736-50.924-2.789-76.172 7.187-27.84 2.269-87.64-1.599-169.846-24.259-66.935 21.024-26.02-3.442-10.631-98.127zM46.31 131.82l154.942-11.418-4.849 73.24-150.093.72V131.82z"/><path fill="#A1A1A1" d="m37.687 79.204 17.245 8.71-5.064 106.572-23.558 9.156 2.844-64.372 8.533-60.066zM242.451 64.945l18.517 19.527-9.614 125.25-20.608 6.643V131.82l11.705-66.875zM287.277 46.962l17.228 20.866 4.036 135.219-14.876 6.998-6.388-70.774V46.962zM398.351 26.114l25.811 15.092-27.446 168.516-27.33 12.01 10.466-104.124 18.499-91.494zM543.356 59.117l-28.576 9.866 3.809 145.21 13.567 5.233 12.266-90.924-1.066-69.385zM701.485 61.782l29.508-8.177 5.69 64.003v92.113l-38.468-1.589 3.27-146.35zM681.04 216.176l-22.059-4.854-11.959-157.805 25.642-22.023 7.088 100.326 1.288 84.356zM813.918 204.655l-5.772-119.349 22.754-9.641 5.691 59.561-.712 76.675-21.961-7.246z"/><path fill="#DCDCDB" d="M2.845 85.979 0 201.365l26.309 2.278L37.688 79.205 2.845 85.979zM194.27 212.505l3.766-142.122 44.414-5.438-11.703 151.42-36.477-3.86zM251.354 209.722l3.213-160.032 32.711-2.728 6.388 163.082-42.312-.322zM333.254 215.2l14.095-186.689 51.001-2.397-28.965 195.618-36.131-6.532zM532.156 219.425l11.2-160.308 41.754 5.829-14.272 152.346-38.682 2.133zM672.665 31.494l36.005 4.778-5.052 177.921-22.577 1.983-8.376-184.682zM730.993 53.605l32 7.645v147.103l-26.311 1.37M830.9 75.665l30.935 6.001-3.2 127.837-22.757 2.398L830.9 75.665z"/><path fill="#9C9FA0" d="M370.453 237.725h-5.666V95.887h5.666v141.838z"/><path fill="#2B2B2B" d="M364.786 113.821h5.667V95.887h-5.667v17.934zM0 0h900v350H0V0zm0 350h900V0H0v350z" opacity=".2"/><path fill="#C3C3C3" d="m389.496 71.531-22.043-16.207-22.043 16.207 4.722 7.957 2.032 5.553-4.977 2.844 6.044 9.244 5.689-4.042.356 8.665h16.354l.489-8.665 5.556 4.042 6.043-9.244-4.976-2.844 1.899-5.021 4.855-8.489z"/><path fill="#EBEBEA" d="M367.452 55.323 345.41 71.531l6.754 13.512-4.978 2.844 6.045 9.244 4.977-2.488 1.068 7.11h8.176v-46.43z"/><path fill="#737373" d="M355.32 76.954h9.732v9.31l-3.732-4.655-6-4.655zM379.852 76.954h-9.732v9.31l3.465-4.655 6.267-4.655zM366.92 91.22h-2.134l2.134-4.8M368.32 91.22h2.132l-2.132-4.8"/><g opacity=".2"><path fill="#2B2B2B" d="m375.63 101.752 1.066-7.11 4.978 2.487-7.288-6.976 1.244 11.599zM353.232 97.13l4.977-2.488 1.067 7.111 1.31-11.599-7.354 6.976zM354.854 83.42l-9.444-11.889 6.755 13.511 2.689-1.622zM382.741 85.042l6.754-13.51-9.711 11.822 2.957 1.688z" opacity="1"/></g><path fill="#848585" d="m379.852 76.954-6.933 2.799-2.799 6.511 9.732-9.31zM355.32 76.954l6.399 2.799 3.333 6.511-9.732-9.31z"/><path fill="#9C9FA0" d="m537.379 239.84-5.592-.918L563.398 46.33l5.591.918-31.61 192.592z"/><path fill="#2B2B2B" d="m566.084 64.945-5.591-.918 2.904-17.698 5.592.918-2.905 17.698z" opacity=".2"/><path fill="#C3C3C3" d="M591.723 26.298 572.597 6.734l-24.378 12.423 3.371 8.616 1.108 5.812-5.372 2 4.466 10.1 6.268-3.069-1.052 8.609 8.07 1.324 8.068 1.325 1.888-8.472 4.826 4.89 7.463-8.142-4.454-3.614 2.688-4.648 6.166-7.59z"/><path fill="#EBEBEA" d="m572.597 6.733-24.378 12.424 4.479 14.428-5.372 2 4.466 10.1 5.316-1.648-.1 7.188 8.07 1.324 7.519-45.816z"/><path fill="#737373" d="m557.122 26.113 9.604 1.577-1.508 9.187-2.929-5.199-5.167-5.565zM581.33 30.086l-9.604-1.576-1.507 9.188 4.174-4.033 6.937-3.579zM566.258 42.069l-2.106-.345 2.883-4.391M567.639 42.296l2.104.345-1.325-5.082"/><g opacity=".2"><path fill="#2B2B2B" d="m573.147 53.873 2.203-6.843 4.511 3.262-6.063-8.065-.651 11.646zM551.793 45.685l5.315-1.648-.099 7.188 3.172-11.234-8.388 5.694zM555.614 32.419l-7.395-13.262 4.479 14.428 2.916-1.166zM582.87 38.536l8.854-12.238-11.496 10.093 2.642 2.145z" opacity="1"/></g><path fill="#848585" d="m581.33 30.086-7.295 1.641-3.816 5.971 11.111-7.612zM557.121 26.113l5.862 3.8 2.235 6.964-8.097-10.764z"/><path fill="#9C9FA0" d="m353.622 227.395-5.537 1.21-30.289-138.567 5.537-1.209 30.289 138.566z"/><path fill="#2B2B2B" d="m327.163 106.349-5.536 1.211-3.83-17.522 5.536-1.209 3.83 17.52z" opacity=".2"/><path fill="#C3C3C3" d="M336.736 60.967 311.74 49.842l-18.074 20.542 6.313 6.763 3.172 4.993-4.256 3.84 7.879 7.741 4.694-5.166 2.198 8.391 7.988-1.747 7.99-1.746-1.373-8.569 6.29 2.763 3.931-10.322-5.47-1.716.784-5.31 2.93-9.332z"/><path fill="#EBEBEA" d="m311.74 49.84-18.074 20.543 9.484 11.755-4.255 3.843 7.879 7.739 4.331-3.494 2.561 6.72 7.988-1.746-9.914-45.36z"/><path fill="#737373" d="m304.506 73.563 9.509-2.077 1.989 9.096-4.642-3.751-6.856-3.268zM328.472 68.325l-9.508 2.079 1.988 9.095 2.393-5.289 5.127-5.885zM318.885 85.024l-2.084.456 1.059-5.144M320.252 84.724l2.083-.455-3.108-4.233"/><g opacity=".2"><path fill="#2B2B2B" d="m329.644 93.453-.478-7.174 5.395 1.367-8.61-5.259 3.693 11.066zM306.774 93.72l4.332-3.494 2.56 6.72-1.196-11.612-5.696 8.386zM305.432 79.979l-11.765-9.596 9.484 11.756 2.281-2.16zM333.023 75.608l3.714-14.64-6.964 13.623 3.25 1.017z" opacity="1"/></g><path fill="#848585" d="m328.472 68.325-6.175 4.215-1.345 6.959 7.52-11.174zM304.506 73.563l6.85 1.369 4.648 5.649-11.498-7.018z"/><path fill="#2B2B2B" d="M340.432 238.666 478.026 213.6l103.997 33.598-127.995 14.932-113.596-23.464z" opacity=".1"/><path fill="#848585" d="M428.569 29.873 404.895 17.34h-5.848l-7.242 3.555 13.09 18.845 23.674-9.867z"/><path fill="#737373" d="m404.845 0-13.039 20.895 13.09-3.555V0h-.051zM412.601 184.8h-13.553V67.828h13.553l2.105 47.684-2.105 69.288z"/><path fill="#848585" d="M426.155 184.8h-13.554V67.828h13.554l2.414 47.684-2.414 69.288z"/><path fill="#737373" d="M439.711 184.8h-13.556V67.828h13.556l2.574 50.536-2.574 66.436z"/><path fill="#848585" d="M453.264 184.8h-13.553V67.828h13.553l1.205 50.536-1.205 66.436z"/><path fill="#737373" d="M466.818 184.8h-13.555V67.828h13.555l2.133 54.943-2.133 62.029z"/><path fill="#848585" d="M480.372 184.8h-13.555V67.828h13.555l1.669 54.943-1.669 62.029z"/><path fill="#737373" d="M493.926 184.8h-13.554V67.828h13.554l1.482 58.235-1.482 58.737z"/><path fill="#848585" d="M507.481 184.8h-13.555V67.828h13.555l3.243 56.097-3.243 60.875z"/><path fill="#737373" d="M521.033 184.8h-13.552V67.828h13.552V184.8z"/><path d="M521.033 85.604 399.049 73.871v-6.043h121.984v17.776z" opacity=".1"/><path fill="#848585" d="M391.806 46.672v23.289l135.906 6.399V46.672H391.806z"/><path fill="#737373" d="m459.76 44.539-67.954 2.133v8.178l70.087 6.399 65.819-7.466v-7.111l-67.952-2.133z"/><path fill="#9C9FA0" d="m375.097 49.872 84.662 4.268 5.334-20v-20l-89.996 35.732z"/><path fill="#737373" d="m490.953 29.873 23.671-12.533h5.848l7.241 3.555-13.089 18.845-23.671-9.867z"/><path fill="#848585" d="M514.624 0v17.34l13.09 3.555L514.675 0h-.051zM544.423 46.673l-84.664 7.466 5.335-39.998 79.329 32.532z"/><path fill="#737373" d="M499.625 184.8h-79.136l-1.908 50.455 83.512 4.449-2.468-54.904z"/><path fill="#848585" d="m426.162 244.131-47.866.044 6.268-77.174h41.598v77.13z"/><path fill="#737373" d="M410.962 226.332h-11.201l-3.047-45.1 14.248 3.568v41.532z"/><path fill="#4F5252" d="m378.297 244.176 21.465-17.843h11.201l11.299 12.483 3.899 5.316-47.864.044z"/><path fill="#9C9FA0" d="M410.962 184.799 426.161 167h-41.598l12.152 14.231 14.247 3.568z"/><path fill="#848585" d="m539.713 244.888-45.732-.756v-77.131h41.598l4.134 77.887z"/><path fill="#737373" d="m520.379 226.332-14.976 4.422 3.777-45.954 12.701-1.757-1.502 43.289z"/><path fill="#4F5252" d="m493.981 244.131.246-4.899 11.177-8.478 14.975-4.422 19.334 18.555-45.732-.756z"/><path fill="#9C9FA0" d="m521.881 183.044 13.698-16.042h-41.598l15.199 17.799 12.701-1.757z"/><path fill="#C3C3C3" d="m384.563 167.001 14.485-7.954 21.537 2.533 5.576 5.421h-41.598zM535.579 167.001l-14.546-7.954-18.94 2.533-8.112 5.421h41.598z"/><path fill="#2B2B2B" d="m376.511 323.728 74.582 17.354 111.73-13.61-86.397-28.369-99.915 24.625z" opacity=".1"/><path fill="#53AE89" d="m483.359 296.363-75.463 21.767 48.265 13.899 75.995-14.397-48.797-21.269z"/><path fill="#35785D" d="m400.162 322.397 83.196-26.034v-5.788l-1.599-5.12-33.243 9.208-47.021 16.89.8 6.08-2.133 4.764z"/><path fill="#3E8E6E" d="m401.496 311.552 2.4-6.427-1.6-6.374 81.062-25.865v7.733l-1.599 4.835-80.263 26.098z"/><path fill="#71C7A4" d="m402.296 298.751 48.797 18.578 2.222 5.068-2.222 5.688-23.687-5.688-25.911-10.844.801-12.802z"/><path fill="#53AE89" d="m401.496 311.553 49.597 16.532 1.512 7.151-1.512 5.845-50.93-18.685 1.333-10.843zM483.358 272.886l-1.6 12.568 23.999 14.721 31.467 13.688.71-8.738 3.822-6.374-58.398-25.865z"/><path fill="#71C7A4" d="m481.759 285.454 1.6 10.908 50.399 28.434-.088-5.601 3.555-5.332-55.466-28.409z"/><path fill="#3E8E6E" d="m451.093 317.329 90.664-18.578-4.532 15.112-42.133 8.533-43.999 5.688v-10.755z"/><path fill="#35785D" d="m451.093 341.082 82.665-16.286 3.467-10.932-86.132 14.22v12.998z"/></g><g display="block"><path fill="#2B2B2B" d="m687.698 260.397 174.136 21.264 37.333-30.953-111.925-18.453-99.544 28.142z" opacity=".1"/><path fill="#6E7073" d="m825.21 263.819 9.957-32.193v-40.71l-76.798-6.737-81.234 3.378 14.927 70.125 133.148 6.137z"/><path fill="#4F5252" d="m825.21 267.941 47.644-13.484 3.2-70.278h-20.532l-20.355 6.737-9.957 77.025z"/><path fill="#CDCDCC" d="m677.135 187.557 10.563 72.84 137.512 7.544 8.367-30.509 1.59-46.516-158.032-3.359zm124.966 68.507-94.929-11.04-13.511-48.353 123.018 9.861-14.578 49.532z"/><path fill="#848585" d="m835.167 190.916-9.957 77.025 50.844-11.327v-72.435l-40.887 6.737zm30.043 56.459-25.421 6.4 3.022-52.619 25.598-2.134-3.199 48.353z"/><path fill="#9C9FA0" d="m835.167 190.915 4.622-18.142-76.442-25.886-86.212 27.179v13.492l81.327-.492 76.705 3.849z"/><path fill="#6E7073" d="m763.346 146.886 112.707 25.886-16.354 12.941-24.533 5.202-.177-14.765-71.643-29.264z"/><path fill="#CDCDCC" d="m834.989 176.15-157.854-2.082v13.49l158.032 3.358 4.622-7.893-4.8-6.873z"/><path fill="#9C9FA0" d="m835.168 190.915-.179-14.766 41.065-3.377v11.407l-40.886 6.736z"/><path fill="#2B2B2B" d="m735.793 222.297 8 8.021 34.664-8.021-5.909-32.62-20.756 7.636-15.999 24.984z" opacity=".2"/><path fill="#A1A1A1" d="m763.993 183.238-3.848 31.604-29.153-.147 6.935 6.192 30.977-1.683 3.644-29.528-8.555-6.438z"/><path fill="#6E7073" d="m761.213 216.966 6.577 3.479-31.998 1.852-4.8-7.602 16.5-1.096 13.721 3.367z"/><path fill="#EBEBEA" d="m730.993 214.696 5.332-37.287 27.668 5.83-2.78 33.728-30.22-2.271z"/><path fill="#6E7073" d="m740.594 193.332 9.777-6.756 6.401 8.713-8.179 5.333 1.601 7.999-7.822-.89 3.022-7.642-4.8-6.757z"/></g><g display="block"><path fill="#6F9C52" d="M456.294 208.132h-30.133l-11.455-12.265 11.45-14.634 12.271-4.965 17.867 31.864zM476.027 176.267l17.899 4.966v26.9h-37.632l19.733-31.866z"/><path fill="#446024" d="m437.651 178.74 18.643 29.392 20.275-29.795-22.1-4.869-16.818 5.272z"/><path fill="#5A753C" d="m444.091 188.894-2.867 28.306-19.995-.668-6.524-20.665 13.322-1.466 16.064-5.507zM467.59 191.531l13.168 5.1 13.168 2.301v15.734l-23.441 2.533-2.895-25.668z"/><path fill="#9FCE7D" d="m414.707 195.866 15.853 8.5 13.531-15.472-29.384 6.972zM467.59 191.531l12.029 14.058 14.307-6.657-26.336-7.401z"/><path fill="#446024" d="m416.295 217.2 29.332.934-1.24 5.517-16.493 30.347-12.105-32.619.506-4.179z"/><path fill="#5A753C" d="m429.326 233.33-13.965 10.845.427 3.955 13.538 7.868 14.765-8.267-.775-2.744-13.99-11.657z"/><path fill="#6F9C52" d="m447.895 217.199-34.4-2 2.294 6.182 28.598 2.27 3.508-6.452zM410.03 247.732l19.297 8.267 17.763-7.868-3.771-3.142-13.919 6.243-14.038-7.056-5.332 3.556z"/><path fill="#446024" d="M468.422 218.666 495.429 214l.083 5.338-1.605 24.839-6.416 11.575-19.509-31.74.44-5.346z"/><path fill="#5A753C" d="m487.011 233.711-12.576 10.108-3.224 3.666 16.28 8.268 14.654-7.866-2.072-3.656-13.062-10.52z"/><path fill="#6F9C52" d="m467.98 224.013 27.53-4.674 2.249-7.086-33.334 4.948 3.555 6.812zM500.072 244.231l-12.581 6.492-13.057-6.904-5.89 4.733 18.947 7.201 17.009-7.568-4.428-3.954z"/></g><g display="block"><path fill="#5A753C" d="M436.684 113.814v10.11l-3.375 6.949-25.239 7.123-25.24 1.711 41.981-35.514 11.873 9.621z"/><path fill="#738B56" d="M433.31 130.873v8.834l-3.983 11.3-19.569-11.3-25.195 27.294-1.733-27.294 50.48-8.834z"/><path fill="#9FCE7D" d="m384.563 167.001 23.87-31.774 20.894 15.78v8.04l-3.166 7.954-13.318-6.733-28.28 6.733z"/><path fill="#DEBBA3" d="m388.637 161.58 26.069-6.465 5.389 11.886-31.458-5.421z"/><path fill="#C2967A" d="m388.637 161.58 8.079 14.688h16.779l6.6-9.267-31.458-5.421z"/></g><g display="block"><path fill="#738B56" d="m483.5 134 6.242 36.638 4.251.364 2.786-36.125L483.5 134z"/><path fill="#446024" d="m436.961 112.413 12.178 5.951-2.579 23.812-6.849 21.462-6.402 3.363h-7.148l10.8-54.588z"/><path fill="#6F9C52" d="m449.139 118.363 11.969 7.95-1.067 17.467-2.816 15.266-8.798 3.977-8.717.614 9.429-45.274z"/><path fill="#446024" d="m461.108 126.313 16.853 14.688 1.658 11.646-2.594 10.992-19.8-4.593 3.883-32.733z"/><path fill="#6F9C52" d="m477.96 141.001 12.992 10.112 3.029 15.888h-9.823l-7.135-3.363.937-22.637z"/><path fill="#97C16C" d="m424.161 104.67 77.932 56.91 18.94-2.534 4.458.778-1.422-35.9-19.378-20.667-60.997-12.939-19.533 14.352z"/><path fill="#5A753C" d="m524.07 123.924-12.311 8.102-9.667 29.554 18.942-2.533 8.396 4.591-5.36-39.714z"/></g><g display="block"><path fill="#5A753C" d="m426.161 167 31.064-7.953L493.98 167l-.055 14.231-38.299-6.386-29.472 6.386.007-14.231z"/><path fill="#97C16C" d="m457.226 159.046-1.6 15.798 20.943 3.492.469-15.003-19.812-4.287z"/><path fill="#5A753C" d="M460.069 165.066h12.827l.731 8.934-13.558-.934v-8z"/></g><g display="block"><path fill="#896651" d="m460.336 114.739 13.066 11.324 12.054-7.7-12.054-2.638-13.066-.986z"/><path fill="#DEBBA3" d="m452.695 72.05-6.669-3.334-3.741 11.525 5.207 2.371 3.779-4.031 1.424-6.531zM502.324 85.603l6.118-1.131.891 10.901-5.603 1.059-1.795-4.962.389-5.867z"/><path fill="#896651" d="m446.739 79.826 2.4-5.599-2.58-1.067.18 6.666zM504.78 93.87l-.268-5.333 2.756-.623-2.488 5.956z"/><path fill="#464646" d="m457.405 62.494-13.712 27.825 6.855 5.055 5.078-17.148 1.779-15.732zM500.958 76.715l3.733 26.543-7.44 1.413 1.219-14.445 2.488-13.511z"/><path fill="#DEBBA3" d="m457.405 62.493-5.055 24.246-3.3 24.553 44.175 6.489 5.088-21.131 2.645-19.934-18.917-8.89-24.636-5.333z"/><path fill="#C2967A" d="m458.559 76.715 1.371-3.73 16.096 8.885 20.111-.94.154 4.673-18.485 6.624-8.856-1.91-10.391-13.602z"/><path fill="#AF8B79" d="m452.35 86.737-5.436 26.065 48.333 6.975 2.004-11.952 1.063-11.176-45.964-9.912z"/><path fill="#E7C8B5" d="m479.618 82.532-1.763 9.706-8.905-1.92 1.555-10.078 9.113 2.292z"/><path fill="#896651" d="m459.892 95.47 12.935.267 10.131 5.733-1.733 3.2-9.466-6.667-11.733.934-.134-3.467zM468.95 90.318l3.665 4.218 5.239-2.299-8.904-1.919z"/><path fill="#464646" d="M486.14 81.684a2.001 2.001 0 0 1 0 4 2.001 2.001 0 0 1 0-4zM467.3 76.73a2.001 2.001 0 0 1 0 4 2.001 2.001 0 0 1 0-4z"/><path fill="#B7C545" d="m497.251 53.516-15.853 11.268-2.926-18.913-12.411 12.943 32.712 12.735-1.522-18.033z"/><path fill="#E7EE78" d="m459.76 56.36 8.311-18.844 5.331 24 16.267-15.467.708 22.231 21.069-12.652-8.534 17.532-6.621-1.612-13.874-5.011-15.235-6.088-7.422-4.089z"/><path fill="#D7E153" d="m457.405 62.493 2.354-6.133 43.154 16.801-1.955 3.555-43.553-14.223z"/><path fill="#B7C545" d="m468.071 37.516-2.978-7.91 6.332 1.4 5 4.067-8.354 2.443zM474.284 39.738l4.187 6.134 5.821-3.866-4.674-2.268h-5.334zM489.669 46.05l-2.737-7.202 4.946.891 4.948 3.066-7.157 3.245zM493.926 47.871l3.324 5.646 6.65-3.271-4.987-2.375h-4.987zM511.446 55.628l-1.238-5.938 4.416 1.782 3.966 3.345-7.144.811z"/><path fill="#E7EE78" d="m465.093 29.606 8.309-2.667 3.023 8.134-11.332-5.467zM474.284 39.738l6.088-4.666 3.92 6.934-10.008-2.268zM486.932 38.847l7.76-3.775 2.134 7.734-9.894-3.959zM493.926 47.871l7.043-5.065 2.931 7.44-9.974-2.375zM510.208 49.69l8.382-3.64v8.768l-8.382-5.128z"/><path fill="#464646" d="m459.627 70.005-2.401 6.533 18.8 9.199 20.8.268-.534-8.934-19.866 3.171-16.799-10.237z"/><path fill="#6E7073" d="m459.627 70.005 16.398 15.732 20.266-8.666-21.065.933-15.599-7.999z"/></g><g display="block"><path fill="#738B56" d="m493.981 167.001-4.74-14.354 7.586 2.467 5.266 6.466-8.112 5.421z"/><path fill="#738B56" d="m511.759 132.026 17.67 31.612-27.336-2.058 1.808-14.953 7.858-14.601z"/><path fill="#BDDA8D" d="m511.759 132.026-14.934-9.254-18.866 21.009 24.133 17.799 9.667-29.554z"/><path fill="#896651" d="m496.827 122.77 8.576-2.993v-11.095l-5.6 7.043-2.976 7.045zM489.24 135.227l2.638 12.261 10.446-15.395-5.498-9.323-4.4 5.232-3.186 7.225z"/><path fill="#C2967A" d="m505.404 108.682-7.091-12.032-.998 7.543-1.193 8.995 4.64-.775 4.642-3.731z"/><path fill="#DEBBA3" d="m485.457 118.363 10.665-5.176 9.281-4.506-16.162 26.546-3.784-16.864z"/></g><g display="block"><path fill="#5A753C" d="m649.861 210.78-20.419-12.453 40.518-66.451 20.42 12.453-40.519 66.451z"/><path fill="#738B56" d="m690.196 136.546-6.616-4.035-3.151-6.042 31.404-52.603 6.712 1.306 6.618 4.035-34.967 57.339z"/><path fill="#97C16C" d="m683.58 132.511-6.615-4.034 34.964-57.34 6.616 4.035-34.965 57.339z"/><path fill="#5A753C" d="m723.917 81.249-13.234-8.069-1.094-9.967 12.741 5.752 10.947 8.692-9.36 3.592z"/><path fill="#9FCE7D" d="m709.59 63.213 16.727-.782 6.959 15.226-23.686-14.444z"/><path fill="#6F9C52" d="m648.066 120.374 62.567 38.152 5.625-9.226-21.071-12.85-11.607-3.939-8.814-8.512-21.074-12.851-5.626 9.226z"/><path fill="#9FCE7D" d="m674.767 123.998 20.42 12.452-21.464 12.23 1.044-24.682z"/></g><g display="block"><path fill="#2B2B2B" d="m552.687 292.684 84.381-13.777 83.805 24.683-94.137 19.517-74.049-30.423z" opacity=".1"/><path fill="#35785D" d="m617.981 265.898 1.29 24.106-37.596-3.251 9.281-26.787 27.025 5.932zM645.485 272.403l-.957 22.003 37.694-1.53-9.375-24.108-27.362 3.635z"/><path fill="#53AE89" d="m589.807 211.519-11.286 42.9 18.795 20.568 8.372-25.051 4.497-19.83-7.846-10.898-12.532-7.689zM628.601 246.907l5.978 26.644 30.614 8.657-5.235-27.982-8.893-21.382-12.325 4.434-10.139 9.629z"/><path fill="#3E8E6E" d="m610.185 230.105 10.045 7.173 8.371 9.629L623.865 268l-26.548 6.987 12.868-44.882zM672.848 219.208l12.147 44.776-19.802 18.224-14.128-49.364 8.893-7.126 12.89-6.51z"/><path fill="#6F9C52" d="m589.807 211.519 20.375 18.589 18.418 14.891 22.465-12.155 21.782-13.635-6.407-13.243-36.117 7.765-35.374-13.803-5.142 11.591z"/><path fill="#5A753C" d="m617.981 214.189-7.796 15.917 18.416 16.802 22.464-14.063-9.987-16.578-10.755-2.537-12.342.459z"/><path fill="#3E8E6E" d="m573.926 288.858 23.391-13.872 26.547 17.889-6.504 6.507-42.332-1.531-1.102-8.993zM638.741 295.937l26.452-13.729 17.03 10.666 5.74 3.063-1.149 7.653-39.919 1.34-8.154-8.993z"/><path fill="#53AE89" d="m668.032 294.406 18.782 9.185-17.029 8.609-1.753-8.897v-8.897zM617.36 299.382l-21.812-12.245-3.684 9.851-2.058 9.855 27.554-7.461z"/><path fill="#71C7A4" d="m595.548 287.136-20.522 10.713 14.781 8.995 5.741-19.708zM668.032 294.406l-21.137 10.524 22.89 7.27-1.753-17.794z"/></g><g display="block"><path fill="#6F9C52" d="m611.817 145.538-19.331 46.413 37.836 6.318 42.141 3.657 12.533-49.587-73.179-6.801z"/><path fill="#5A753C" d="m592.487 191.951-2.681 19.567 28.181 2.61 13.34.061 9.75 2.076 31.771 2.942-.383-17.281-30.264-3.775-10.874.395-11.456-3.178-27.384-3.417z"/><path fill="#97C16C" d="m619.846 195.532-1.865 18.657 23.096 2.077 1.122-18.115-22.353-2.619z"/><path fill="#5A753C" d="m625.172 200.125 11.607.649-2.008 10.401-10.908-2.153 1.309-8.897z"/><path fill="#35785D" d="m607.753 155.296-16.363-.922-12.868 3.901-3.495 30.301 10.26 5.379 5.833 7.971 16.633-46.63zM668.031 164.868l18.783 2.704 16.263 5.553-10.331 39.012h-10.524l-9.375 7.071-7.654-32.715 2.838-21.625z"/><path fill="#71C7A4" d="m611.817 145.538-9.478-7.792-22.864 4.948-.954 15.582 18.795-1.914 10.437-1.065 4.064-9.759zM684.996 152.339l21.237 5.937-3.156 14.849-35.046-8.258 1.753-7.358 15.212-5.17z"/><path fill="#3E8E6E" d="m678.778 205.898-13.585-19.405-16.646.207-17.219 3.694-11.016 4.134 52.535 24.679 5.931-13.309z"/><path fill="#53AE89" d="m585.287 189.768 17.053-18.294 43.122 1.65 3.085 9.615-1.652 7.029-55.775 12.158-5.833-12.158z"/><path fill="#906A58" d="m645.462 173.124 19.73 13.369-18.297 3.275-1.433-16.644z"/><path fill="#71C7A4" d="m665.194 186.493 7.654 32.714 19.898-7.07-27.552-25.644zM575.027 188.576l27.312-17.102-11.219 30.452-16.093-13.35z"/><path fill="#B7C545" d="m692.746 212.137-4.783 16.025-15.115-8.954 19.898-7.071zM591.121 201.926l-15.193 3.654-.901-17.004 16.094 13.35z"/><path fill="#906A58" d="m620.313 172.162-12.561-16.865-5.218 8.285-.195 7.892 8.173 1.651 9.801-.963z"/><path fill="#AF8B79" d="m607.754 155.296-5.414-1.026-5.024 2.089 5.024 15.115 5.414-16.178z"/></g><g display="block"><path fill="#D7E153" d="m629.441 92.643-11.702-5.069-3.824-5.071-1.914-5.071V62.311l-11.29 18.134 6.124 21.742 4.254 12.838 18.352-22.382z"/><path fill="#B7C545" d="M620.312 103.777 600.71 80.445l3.905 22.353 6.474 12.227 9.223-11.248z"/><path fill="#E7EE78" d="m617.74 87.573-17.028-7.127 11.29-3.013 5.738 10.14z"/><path fill="#3E8E6E" d="m684.996 152.339-7.988-35.805-4.927-11.741-6.336-9.598-8.204-5.71-6.698-9.04-21.402 12.198-11.126 9.543-7.225 12.838-8.75 22.721 17.506 11.944 19.23 18.254 25.352-10.916 20.568-4.688z"/><path fill="#35785D" d="m684.996 152.34-18.081-7.558-26.966 18.801-26.486-31.259-11.123 5.421 36.736 30.199 45.92-15.604zM650.842 80.444l-8.036 20.522 11.47-1.218 11.468-4.553-14.902-14.751z"/><path fill="#906A58" d="m659.957 123.764 3.705-.413 1.756 3.608 2.095 18.073-13.238 10.265V139.65l5.682-15.886z"/><path fill="#664739" d="m625.171 148.607 17.635 2.324 11.469 4.365-15.2 12.647-13.904-19.336z"/><path fill="#AF8B79" d="m659.958 123.764-5.682 31.533-42.46-9.759 2.661-21.342 2.362-4.229 43.119 3.797z"/><path fill="#664739" d="m618.89 136.605 29.656 3.108-1.72 2.982-27.936-3.051v-3.039zM665.418 126.959l-34.856 9.266-16.086-12.032.6-5.242 17.589 10.14 32.033-7.336.72 5.204z"/><path fill="#53AE89" d="m677.007 116.536-46.445 19.69-16.647-21.792 3.061-14.687 12.82-4.553 13.01 5.772 22.938-5.772 8.344 8.259 2.919 13.083z"/><path fill="#71C7A4" d="m642.806 100.966-12.244 35.261-19.472-21.203 5.886-15.277 12.465-7.104 13.365 8.323z"/><path fill="#2B2B2B" d="m624.15 108.094 13.535 7.616 19.757-5.847 1.724 6.673-24.426 7.658L622 113.738l2.15-5.644z"/><path fill="#D7E153" d="m665.745 95.194 9.97-1.407 6.124-3.975 3.157-3.974 4.112-14.912 3.638 20.09-10.524 18.847-5.215 6.673-12.199-8.442.937-12.9z"/><path fill="#B7C545" d="m664.81 108.094 27.936-17.078-9.758 20.569-5.98 4.951-12.198-8.442z"/><path fill="#E7EE78" d="m684.996 85.838 7.75 5.179-17.03 2.771 9.28-7.95z"/></g><g display="block"><path fill="#5A753C" d="m146.132 54.21-10.368-12.899v16.282l10.368-3.383zM79.672 59.777l-3.517-10.274-5.553.833-3.888 7.748 12.958 1.693z"/><path fill="#6F9C52" d="m127.805 56.399 18.326-2.189-9.163 15.332-6.017-5.183-3.146-7.96zM85.596 58.991l-18.882-.907 12.453 15.372 4.948-6.505 1.481-7.96z"/><path fill="#3E8E6E" d="M88.262 61.859 75.97 80.65v36.098l13.928 9.3 24.948 8.761 23.696-10.576 7.59-12.483-5.369-36.655-14.925-15.318-37.576 2.082z"/><path fill="#FBE2D3" d="m131.659 79.453 3.562 41.689-45.324 3.091-1.636-40.547 43.398-4.233z"/><path fill="#F4C8B1" d="m95.593 90.647 11.426 16.336 9.442-.555 8.104-18.003-28.972 2.222z"/><path fill="#FFEEE7" d="m106.126 89.84.895 17.144 9.441-.556-1.615-17.108-8.721.52z"/><path fill="#C1907C" d="m88.261 83.687 22.965 10.291 20.433-14.524-43.398 4.233z"/><path fill="#4F5252" d="m95.593 90.647 10.533-.806.365 6.252-10.898-5.446zM114.847 89.32l9.718-.896-9.05 6.756-.668-5.86zM107.02 106.983l-8.881 8.401 27.698-1.666-9.376-7.29-9.441.555z"/><path fill="#2B2B2B" d="M122.158 96.848a2.222 2.222 0 1 1-4.443-.001 2.222 2.222 0 0 1 4.443.001zm-17.771 1.527a2.222 2.222 0 1 1-4.444.002 2.222 2.222 0 0 1 4.444-.002zM107.02 106.983l4.968 3.923 4.474-4.478-9.442.555z"/><path fill="#C1907C" d="m125.838 113.717-13.851 3.124-13.849-1.458 27.7-1.666z"/><path fill="#71C7A4" d="m108.367 57.591 2.926 15.865-.242 15.865-35.08-8.671 9.625-21.659 22.771-1.4z"/><path fill="#53AE89" d="m108.367 57.591 19.438-1.191 12.958 18.695-29.712 14.225-2.684-31.729z"/></g><g display="block"><path fill="#2B2B2B" d="m27.469 275.953 89.414-17.216 88.304 17.772-91.635 22.771-86.083-23.327z" opacity=".1"/><path fill="#3E8E6E" d="m77.453 193.39-23.604 75.899 41.745 1.411 20.869-54.93v-25.342l-39.01 2.962z"/><path fill="#3E8E6E" d="m116.462 215.769 24.301 54.493 39.391-4.883-25.229-77.545-38.463 2.594v25.341z"/><path fill="#53AE89" d="m64.536 234.92 23.838-8.948 16.582 20.083-26.948 8.863-13.472-19.998zM129.57 245.162l18.228-18.08 22.446 7.839-14.299 17.831-26.375-7.59z"/><path fill="#35785D" d="m72.315 237.355 14.856-3.518 6.526 10.207-12.218 6.085-9.164-12.774zM140.208 241.242l8.191-9.718 14.441 8.142-10.692 7.584-11.94-6.008z"/><path fill="#71C7A4" d="m53.849 269.289 24.158-14.371 17.586 15.783-22.214 8.147-19.53-9.559zM140.764 270.261l15.18-17.51 24.21 12.627-16.434 13.469-22.956-8.586z"/><path fill="#35785D" d="m70.603 279.703 2.776 5.693 22.214-6.666v-8.03l-22.214 5.925-2.776 3.078zM161.498 279.702l2.591 5.693 16.065-10.9v-9.116l-16.434 11.246-2.222 3.077z"/><path fill="#3E8E6E" d="M73.38 276.625v8.77l-19.532-7.96v-8.146l19.532 7.336zM140.763 270.261l22.957 6.365.369 8.769-23.326-6.665v-8.469z"/></g><g display="block"><path fill="#3E8E6E" d="m161.498 115.279 12.726-14.682-.138 13.12-12.588 1.562zM64.536 122.68l-13.002-12.712.927 12.854 12.075-.142z"/><path fill="#35785D" d="m89.898 124.233 25.688 16.314 19.634-19.406-45.322 3.092z"/><path fill="#3E8E6E" d="m78.932 122.822-1.48 17.375-.161 3.736-1.293 30.09 1.454 19.367 39.01-2.962 2.086-25.708-2.962-26.681-36.654-15.217z"/><path fill="#35785D" d="m146.133 118.542-30.547 19.497.876 52.389 38.464-2.593-.369-17.978-2.871-33.506-5.553-17.809z"/><path fill="#71C7A4" d="m75.971 116.748 39.616 21.29-39.588 35.984-3.686-35.823 3.658-21.451z"/><path fill="#53AE89" d="m115.586 138.038 38.971 31.819 1.385-36.817-9.81-21.289-30.546 26.287z"/><path fill="#6F9C52" d="M73.379 139.093H62.087l-13.884 2.952-6.48 28.138 20.456 1.202 20.456-3.333-9.256-28.959zM153.814 133.608l14.126-2.652 12.994 1.899 9.812 31.864-20.503 2.569-19.715-.72 3.286-32.96z"/><path fill="#9FCE7D" d="m73.379 139.093-25.176 2.952 4.257-19.223 23.511-6.073-2.592 22.344zM146.132 111.75l27.953 1.967 6.849 19.138-27.12.753-7.682-21.858z"/></g><g display="block"><path fill="#4F5252" d="m111.792 223.046-28.046 13.13-29.99-34.086 28.879-34.038 29.157 11.524v43.47z"/><path fill="#848585" d="m112.07 216.012-26.468 8.72-12.964-22.633 12.113-22.601 27.319 7.652v28.862z"/><path fill="#4F5252" d="m121.511 223.046 28.046 13.13 29.99-34.086-28.879-34.038-29.157 11.524v43.47z"/><path fill="#848585" d="m121.234 216.012 26.468 8.72 12.962-22.633-12.111-22.601-27.319 7.652v28.862z"/><path fill="#8E8E8E" d="M121.511 290.948h-4.86l-3.888-2.221.112-107.072 3.776-2.079h4.86v111.372z"/><path fill="#9C9FA0" d="M116.651 290.949h-4.86V179.575h4.86v111.374z"/><path fill="#2B2B2B" d="m116.652 201.868-54.148 10.165-8.726-9.919 6.43-7.626 48.16-18.961 55.721 6.144 7.396 10.918 8.042 9.525-9.951 11.309-52.924-11.555z" opacity=".2"/></g><g display="block"><path fill="#5A753C" d="m190.745 164.719-33.044 31.654-6.179-15.828-.995-13.976 40.218-1.85zM41.722 170.183l33.985 26.189 4.89-14.16 2.037-14.16-40.912 2.131z"/><path fill="#6F9C52" d="m150.528 166.569-16.429 4.816-2.44 11.893 2.44 11.209 23.602 1.886-7.173-29.804zM82.635 168.052l10.997-2.659 6.312 11.521 1.099 9.66-25.336 9.799 6.928-28.321z"/><path fill="#97C16C" d="m134.099 171.385-12.589 1.643-5.569 11.671.52 6.773 17.638 3.015v-23.102z"/><path fill="#738B56" d="m116.462 191.472-15.825 4.9.405-9.799 20.469-13.545-5.049 18.444z"/><path fill="#BDDA8D" d="m101.042 186.573 10.749-6.997 3.055-9.394 1.095-10.857-22.31 6.067 7.411 21.181z"/><path fill="#6F9C52" d="m115.942 159.326 18.157 12.059-22.308 8.191 4.151-20.25z"/><path fill="#446024" d="m190.745 164.719-5.553 24.598-27.491 7.056 33.044-31.654zM41.722 170.183l8.144 24.305 25.84 1.885-33.984-26.19z"/></g><g display="block"><path fill="#2B2B2B" d="m288.312 338.599 61.47-11.013 56.602 11.782-59.165 9.988-58.907-10.757z" opacity=".1"/><path fill="#C2967A" d="m339.544 339.639 7.129 1.443 6.325-2.642-1.576-1.253-7.767-6.169-2.511 3.467-1.6 5.154z"/><path fill="#896651" d="m346.673 341.082 7.13-2.001v-3.845l-7.13 5.846z"/><path fill="#DEBBA3" d="m335.041 332.03-5.026 5.051-2.738 3.394 9.065.607 3.201-1.443-2.222-4.978-2.28-2.631z"/><path fill="#896651" d="m336.343 341.083-6.328-4.002-3.982 4.002h10.31zM347.765 322.398l-8.221 17.242-1.221-18.49 9.442 1.248z"/><path fill="#C2967A" d="m329.34 322.397 10.204 17.242v-17.242l-4.088-1.248-6.116 1.248z"/><path fill="#5A753C" d="M339.544 322.397h14.26l-2.211-10.134-12.049 1.601-1.222 5.332 1.222 3.201z"/><path fill="#6F9C52" d="M339.544 313.864v8.532h-15.112l2.49-8.532h12.622z"/></g><g display="block"><path fill="#C2967A" d="m308.541 290.422 9.273 11.882 2.351-11.882h-11.624z"/><path fill="#3E8E6E" d="m314.832 270.132-10.134 19.444 14.205 3.132 2.329-10.666v-10.64l-6.4-1.27z"/><path fill="#C2967A" d="m360.562 281.42-2.73 11.288-5.134-8.354 7.864-2.934z"/><path fill="#3E8E6E" d="m350.697 267.599 13.556 10.712-8.482 7.144-3.073-7.144-2.001-10.712z"/><path fill="#DEBBA3" d="m321.232 265.154-6.401 4.978 6.395 2.038 19.272 8.45 10.199-13.022-29.465-2.444z"/><path fill="#53AE89" d="m321.232 272.172-5.333 47.024 16.888-23.513 7.71-17.373-19.265-6.138zM350.697 267.598l-10.199 10.712 7.167 13.688 15.521 19.556-12.489-43.956z"/><path fill="#3E8E6E" d="m340.498 278.311-24.6 40.886 47.288-7.644-22.688-33.242z"/></g><g display="block"><path fill="#E7EE78" d="m322.566 233.465-6.268-1.565-7.758-7.284 28.815-12.083 15.343 12.083-12.199 4.982-17.933 3.867z"/><path fill="#D7E153" d="m322.566 233.465-14.026-8.849-3.44 8.849 4.665 13.231 11.467 18.458 1.396-17.688-.062-14.001z"/><path fill="#B7C545" d="m305.1 233.465-.4 22.266 16.532 9.422-16.132-31.688zM352.698 224.616l8.266 6.137-3.084 12.545-3.849-9.833-1.333-8.849z"/><path fill="#DEBBA3" d="m322.566 233.465 30.132-8.849 8.266 29.802-15.086 5.691-8.522 7.567-14.657-4.613-.133-29.598z"/><path fill="#C2967A" d="m330.299 239.703 20.398-7.171-2.933 11.599-5.599 1.865-11.866-6.293zM337.356 270.486l8.522-10.377-13.046 4.023-10.266-30.666-1.334 31.688 16.124 5.332z"/><path fill="#896651" d="m345.879 260.108-16.54 5.044 8.017 5.334 8.523-10.378z"/><path fill="#E7C8B5" d="m338.322 236.883 3.843 9.113 5.599-1.864-3.133-9.466-6.309 2.217z"/><path fill="#896651" d="m342.166 245.996 3.712 1.469 1.886-3.334-5.598 1.865z"/><path d="M337.356 242.232a1.9 1.9 0 1 1-3.8-.003 1.9 1.9 0 0 1 3.8.003zM351.532 237.332a1.902 1.902 0 0 1-3.802 0 1.902 1.902 0 0 1 3.802 0z"/><path fill="#B7C545" d="m330.299 239.704 6.132-5.04 1.89 2.219-8.022 2.821zM344.631 234.666l.334-2.766 5.732.632-6.066 2.134z"/><path fill="#896651" d="m340.499 251.597 5.636-1.94 4.562-1.57v1.223l-4.772 1.866-4.827 1.887-.599-1.466z"/></g><g display="block"><path fill="#2B2B2B" d="m211.217 320.158 66.08-10.501 56.604 12.55-58.909 16.392-63.775-18.441z" opacity=".1"/><path fill="#6F9C52" d="m292.556 319.318-12.185-3.162 10.169-3.248 2.293 3.163-.277 3.247z"/><path fill="#C2967A" d="m301.392 308.962 4.756 4.334-6.274 4.324-9.334-4.712 3.627-2.702 7.225-1.244z"/><path fill="#97C16C" d="m306.148 313.296 7.51 5.11-21.102.912-2.016-6.41 15.608.388z"/><path fill="#738B56" d="m286.597 254.419 4.018 16.052-17.41 22.059-34.838-3.021v-31.076l25.954-37.139 22.276 33.125z"/><path fill="#5A753C" d="m242.808 239.704 42.686 4.47-47.128 14.258 4.442-18.728z"/><path fill="#97C16C" d="m238.367 289.508.571 31.845 27.043.485 35.41-12.876-29.757-15.472-33.267-3.982z"/><path fill="#5A753C" d="m238.367 289.508 52.248-19.039 10.776 38.494-63.024-19.455z"/><path fill="#C2967A" d="m238.939 321.352 14.072-4.174 12.97 4.659-14.627 4.903-12.415-5.388z"/><path fill="#97C16C" d="m265.981 321.838-6.614 8.367h-15.466l-4.962-8.852 12.428 4.585 14.614-4.1z"/></g><path fill="#738B56" d="m268.551 195.464 9.75 14.271 4.666 11.464 2.727 26.889-22.594-3.157-20.293-5.226-7.595-36.09v-9.747l33.339 1.596z" display="block"/><path fill="#738B56" d="m242.451 215.213-2.418 9.409-3.073 4.199-12.525 5.844 6.311-29.208 11.705 9.756z" display="block"/><g display="block"><path fill="#896651" d="m287.537 169.194-3.668 20.764-8.215-8.495-2.449-7.831 7.225-4.832 7.107.394z"/><path fill="#DEBBA3" d="m303.784 117.667 9.164 43.658-39.743 12.308-14.449-24.437 6.134-25.272 17.801-4.254 21.093-2.003zM273.737 112.413l2.254-4.446 7.125-3.774 6.556.897 5.017 4.663-10.651 2.618-10.301.042z"/><path fill="#C2967A" d="m284.124 126.063 2.472 2.813 3.076 17.751-8.961-13.355-6.511-.465 9.924-6.744zM291.55 128.037l8.026-5.267-5.788 15.226-2.238-9.959zM264.89 123.924l8.314 49.708-10.356-12.88-4.092-11.557 1.122-13.729 5.012-11.542z"/><path fill="#97C16C" d="m226.858 118.363 25.215-4.885 21.204-1.008 10.803-1.371 10.388-1.317 3.655-1.101 3.777.157 1.884 8.828-38.894 6.258-9.457 3.641-10.78-.385-8.635 3.693-10.024-.691.864-11.819z"/><path fill="#5A753C" d="m282.621 116.136 3.828-5.336 5.412 3.924-3.97 5.5-5.27-4.088z"/><path fill="#53AE89" d="m226.858 118.364 2.513-24.262 49.987.29 4.138 4.803-.381 4.998-9.379 8.22-46.878 5.951z"/><path fill="#3E8E6E" d="m279.359 94.392 18.896.264 3.646 14.183-7.211.915-11.574-5.561-3.757-9.801z"/><path fill="#1C7678" d="m274.2 132.807 3.497-5.184 6.427-1.56-9.924 6.744zM291.55 128.037l2.926-4.232 5.1-1.034-8.026 5.266z"/><path fill="#E7C8B5" d="m291.549 128.037-4.953.839 3.077 17.751 5.765-1.296-3.889-17.294z"/><path fill="#896651" d="m289.673 146.627 3.548 3.018 2.218-4.314-5.766 1.296z"/><path fill="#3E8E6E" d="m264.89 123.924-6.134 25.272-10.052-10.673-4.05-11.344 20.236-3.255z"/><path fill="#53AE89" d="m244.653 127.179-18.659 3.003-4.005 33.456-2.869 9.209.982 6.562 19.199-11.898 19.455-18.315-14.103-22.017z"/><path fill="#3E8E6E" d="m258.756 149.195 10.529 17.806-6.715 17.826-8.84 10.119-4.052 11.75-7.228 8.517-13.611-17.001-8.738-18.804 38.655-30.213z"/><path fill="#53AE89" d="m220.102 179.408-10.442 5.799-15.391 13.98 19.253 6.406 16.53 8.162 12.397 1.459-22.347-35.806zM269.285 167.001l3.92 6.632 10.664 16.325-5.702 3.242-9.617 2.265-14.821-.518 6.504-16.61 9.052-11.336z"/><path fill="#35785D" d="m253.73 194.946 7.812 19.635-1.146 17.319-15.38-9.454-2.566-7.233 11.28-20.267z"/><path fill="#3E8E6E" d="m260.397 231.9-29.034-8.78-17.84-17.528 28.927 9.622 17.947 16.686z"/><path fill="#71C7A4" d="m194.268 199.187 27.722-35.548-1.888 15.77-25.834 19.778z"/><path fill="#5A753C" d="m284.946 157.581 8.354-4.934 8.518 1.558-7.876 2.443-8.996.933z"/><path fill="#97C16C" d="m284.946 157.581 10.237 4 6.635-7.376-7.876 2.443-8.996.933z"/><path fill="#FFF" d="m288.03 157.261 4.796-.948 6.062-1.199-4.346 3.934-6.512-1.787z"/><path fill="#2B2B2B" d="M300.299 131.936a2.636 2.636 0 1 1-5.241.597 2.638 2.638 0 0 1 5.241-.597zm-15.203 2.959a2.636 2.636 0 1 1-5.241.596 2.638 2.638 0 0 1 5.241-.596z"/></g><g display="block"><path fill="#DEBBA3" d="m312.949 213.424 17.35 2.067-21.758 9.125 4.408-11.192z"/><path fill="#C2967A" d="m330.299 215.492-1.052 5.898-8.459 5.898-12.247-2.671 21.758-9.125z"/><path fill="#97C16C" d="m294.049 202.666 18.9 10.759-4.116 10.44-3.733 9.601-17.597-19.852 6.546-10.948z"/><path fill="#5A753C" d="m283.869 189.958 10.18 12.708-11.082 18.534-14.416-25.736 15.318-5.506z"/></g><g display="block"><path fill="#BDDA8D" d="m230.747 205.457 4.465-24.225 15.089-6.387 19.864 8.198 9.08 18.563 2.055 6.038 4.891 8.163 7.498 13.092-1.492 20.524-20.696 13.64-16.919-9.69-14.549-28.752-3.79-7.821-1.031-5.155-4.465-6.188z"/><path fill="#97C16C" d="m270.166 265.154 23.883-12.007-.36-8.035-13.148-7.853-29.778 9.502 2.967 6.125 16.436 12.268z"/><path fill="#9FCE7D" d="m286.191 215.807-7.078-14.137-48.366 3.787 5.496 11.343 49.948-.993z"/><path fill="#97C16C" d="m250.302 173.632-15.09 7.601 34.954 1.811-19.864-9.412z"/><path fill="#DEBBA3" d="m233.083 192.788 27.15-14.452 11.77 23.891-27.308 14.573-11.612-24.012z"/><path fill="#C2967A" d="m242.087 198.02 5.048-5.646 4.374-2.189 7.012-1.065-3.9 7.286-4.109 2.132-8.425-.518z"/><path fill="#E7C8B5" d="m247.136 192.375 3.375 6.163 4.109-2.131-3.112-6.221-4.372 2.189z"/><path fill="#6F9C52" d="m242.086 198.02 2.66-5.702 2.39.056-5.05 5.646zM251.508 190.185l1.231-1.866 5.783.801-7.014 1.065z"/><path fill="#DCDCDB" d="m250.512 198.538 3.271.98.837-3.112-4.108 2.132z"/><path fill="#97C16C" d="m272.004 202.227-9.607 14.054-17.703.518 27.31-14.572z"/><path fill="#C2967A" d="m260.233 178.337 6.958 26.456 4.812-2.565-11.77-23.891zM233.082 192.788l17.222 21.017-5.61 2.995-11.612-24.012z"/><path d="M247.869 198.081a1.85 1.85 0 1 1-3.701-.001 1.85 1.85 0 0 1 3.701.001zM258.802 192.215a1.85 1.85 0 1 1-3.7 0 1.85 1.85 0 0 1 3.7 0z"/></g><g display="block"><path fill="#C2967A" d="m280.934 229.868 5.664-5.25 7.092 4.282-6.856 1.854-5.9-.886z"/><path fill="#DEBBA3" d="m280.934 229.869-7.221 10.891 19.976 4.354.702-4.273-.702-11.941-12.755.969z"/><path fill="#C2967A" d="M293.69 228.899v16.214l4.073-3.556 3.103-9.657-7.176-3.001z"/><path fill="#6F9C52" d="m224.436 234.666 15.596-10.049 40.902 5.252-1.124 30.24-55.374-25.443z"/></g><g display="block"><path fill="#53AE89" d="m256.736 196.772-2.321 3.919-4.529-.5-.623 5.673 8.287 1.11 4.095-7.29-4.909-2.912z"/><path fill="#BDDA8D" d="M257.285 202.663a1.686 1.686 0 1 1-3.02 1.507 1.689 1.689 0 0 1 .755-2.264 1.692 1.692 0 0 1 2.265.757z"/></g></g></svg>